REM DIRINDEX 1\3,1\4,1\5,1\6,1\2\7,1\2\8,1\2\9,1\10
REM DIRNAME cjc056,folder01,folder02,folder03,folder04,folder05,folder06,folder07,folder08,folder09
TITLE ""
FILE "1-22 Level 2-176-186.mp3" MP3
  TRACK 01 AUDIO
    TITLE "0:"
    INDEX 01 00:00:00
  TRACK 02 AUDIO
    TITLE "10:cjc056_0620"
    INDEX 01 00:00:01
  TRACK 03 AUDIO
    TITLE "0:"
    INDEX 01 00:01:30
  TRACK 04 AUDIO
    TITLE "7:cjc056_0621"
    INDEX 01 00:02:06
  TRACK 05 AUDIO
    TITLE "0:"
    INDEX 01 00:03:14
  TRACK 06 AUDIO
    TITLE "8:cjc056_0622"
    INDEX 01 00:03:27
  TRACK 07 AUDIO
    TITLE "0:"
    INDEX 01 00:04:40
  TRACK 08 AUDIO
    TITLE "9:cjc056_0623"
    INDEX 01 00:04:54
  TRACK 09 AUDIO
    TITLE "0:"
    INDEX 01 00:06:73
  TRACK 10 AUDIO
    TITLE "7:cjc056_0624"
    INDEX 01 00:07:51
  TRACK 11 AUDIO
    TITLE "0:"
    INDEX 01 00:08:50
  TRACK 12 AUDIO
    TITLE "8:cjc056_0625"
    INDEX 01 00:08:64
  TRACK 13 AUDIO
    TITLE "0:"
    INDEX 01 00:10:29
  TRACK 14 AUDIO
    TITLE "9:cjc056_0626"
    INDEX 01 00:10:43
  TRACK 15 AUDIO
    TITLE "0:"
    INDEX 01 00:13:00
  TRACK 16 AUDIO
    TITLE "7:cjc056_0627"
    INDEX 01 00:13:51
  TRACK 17 AUDIO
    TITLE "0:"
    INDEX 01 00:14:56
  TRACK 18 AUDIO
    TITLE "8:cjc056_0628"
    INDEX 01 00:14:68
  TRACK 19 AUDIO
    TITLE "0:"
    INDEX 01 00:16:08
  TRACK 20 AUDIO
    TITLE "9:cjc056_0629"
    INDEX 01 00:16:22
  TRACK 21 AUDIO
    TITLE "0:"
    INDEX 01 00:17:65
  TRACK 22 AUDIO
    TITLE "7:cjc056_0630"
    INDEX 01 00:18:42
  TRACK 23 AUDIO
    TITLE "0:"
    INDEX 01 00:19:56
  TRACK 24 AUDIO
    TITLE "8:cjc056_0631"
    INDEX 01 00:19:67
  TRACK 25 AUDIO
    TITLE "0:"
    INDEX 01 00:21:13
  TRACK 26 AUDIO
    TITLE "9:cjc056_0632"
    INDEX 01 00:21:29
  TRACK 27 AUDIO
    TITLE "0:"
    INDEX 01 00:22:66
  TRACK 28 AUDIO
    TITLE "7:cjc056_0633"
    INDEX 01 00:23:42
  TRACK 29 AUDIO
    TITLE "0:"
    INDEX 01 00:24:49
  TRACK 30 AUDIO
    TITLE "8:cjc056_0634"
    INDEX 01 00:24:65
  TRACK 31 AUDIO
    TITLE "0:"
    INDEX 01 00:26:20
  TRACK 32 AUDIO
    TITLE "9:cjc056_0635"
    INDEX 01 00:26:34
  TRACK 33 AUDIO
    TITLE "0:"
    INDEX 01 00:28:45
  TRACK 34 AUDIO
    TITLE "7:cjc056_0636"
    INDEX 01 00:29:21
  TRACK 35 AUDIO
    TITLE "0:"
    INDEX 01 00:30:32
  TRACK 36 AUDIO
    TITLE "8:cjc056_0637"
    INDEX 01 00:30:44
  TRACK 37 AUDIO
    TITLE "0:"
    INDEX 01 00:32:03
  TRACK 38 AUDIO
    TITLE "9:cjc056_0638"
    INDEX 01 00:32:11
  TRACK 39 AUDIO
    TITLE "0:"
    INDEX 01 00:34:16
  TRACK 40 AUDIO
    TITLE "7:cjc056_0639"
    INDEX 01 00:34:67
  TRACK 41 AUDIO
    TITLE "0:"
    INDEX 01 00:35:68
  TRACK 42 AUDIO
    TITLE "8:cjc056_0640"
    INDEX 01 00:36:09
  TRACK 43 AUDIO
    TITLE "0:"
    INDEX 01 00:37:71
  TRACK 44 AUDIO
    TITLE "9:cjc056_0641"
    INDEX 01 00:38:08
  TRACK 45 AUDIO
    TITLE "0:"
    INDEX 01 00:40:32
  TRACK 46 AUDIO
    TITLE "7:cjc056_0642"
    INDEX 01 00:41:12
  TRACK 47 AUDIO
    TITLE "0:"
    INDEX 01 00:42:21
  TRACK 48 AUDIO
    TITLE "8:cjc056_0643"
    INDEX 01 00:42:37
  TRACK 49 AUDIO
    TITLE "0:"
    INDEX 01 00:43:50
  TRACK 50 AUDIO
    TITLE "9:cjc056_0644"
    INDEX 01 00:43:62
  TRACK 51 AUDIO
    TITLE "0:"
    INDEX 01 00:46:31
  TRACK 52 AUDIO
    TITLE "7:cjc056_0645"
    INDEX 01 00:47:09
  TRACK 53 AUDIO
    TITLE "0:"
    INDEX 01 00:48:00
  TRACK 54 AUDIO
    TITLE "8:cjc056_0646"
    INDEX 01 00:48:16
  TRACK 55 AUDIO
    TITLE "0:"
    INDEX 01 00:49:29
  TRACK 56 AUDIO
    TITLE "9:cjc056_0647"
    INDEX 01 00:49:43
  TRACK 57 AUDIO
    TITLE "0:"
    INDEX 01 00:51:54
  TRACK 58 AUDIO
    TITLE "7:cjc056_0648"
    INDEX 01 00:52:32
  TRACK 59 AUDIO
    TITLE "0:"
    INDEX 01 00:53:33
  TRACK 60 AUDIO
    TITLE "8:cjc056_0649"
    INDEX 01 00:53:47
  TRACK 61 AUDIO
    TITLE "0:"
    INDEX 01 00:54:74
  TRACK 62 AUDIO
    TITLE "9:cjc056_0650"
    INDEX 01 00:55:12
  TRACK 63 AUDIO
    TITLE "0:"
    INDEX 01 00:57:45
  TRACK 64 AUDIO
    TITLE "7:cjc056_0651"
    INDEX 01 00:58:18
  TRACK 65 AUDIO
    TITLE "0:"
    INDEX 01 00:59:12
  TRACK 66 AUDIO
    TITLE "8:cjc056_0652"
    INDEX 01 00:59:30
  TRACK 67 AUDIO
    TITLE "0:"
    INDEX 01 01:00:49
  TRACK 68 AUDIO
    TITLE "9:cjc056_0653"
    INDEX 01 01:00:62
  TRACK 69 AUDIO
    TITLE "0:"
    INDEX 01 01:03:41
